<svg xmlns="http://www.w3.org/2000/svg" xmlns:xlink="http://www.w3.org/1999/xlink" width="42" zoomAndPan="magnify" viewBox="0 0 31.5 31.499999" height="42" preserveAspectRatio="xMidYMid meet" version="1.0"><defs><filter x="0%" y="0%" width="100%" height="100%" id="52c1bfb18e"><feColorMatrix values="0 0 0 0 1 0 0 0 0 1 0 0 0 0 1 0 0 0 1 0" color-interpolation-filters="sRGB"/></filter><clipPath id="db9539afef"><path d="M 0 0 L 31.007812 0 L 31.007812 31 L 0 31 Z M 0 0 " clip-rule="nonzero"/></clipPath><mask id="1ae898102c"><g filter="url(#52c1bfb18e)"><rect x="-3.15" width="37.8" fill="#000000" y="-3.15" height="37.799999" fill-opacity="0.149"/></g></mask><clipPath id="1ac91f7c81"><path d="M 0.707031 0.707031 L 31 0.707031 L 31 30.949219 L 0.707031 30.949219 Z M 0.707031 0.707031 " clip-rule="nonzero"/></clipPath><clipPath id="65bae0b6d9"><path d="M 30.476562 14.859375 C 30.3125 14.792969 30.125 14.828125 30 14.957031 L 28.679688 16.277344 L 28.679688 7.285156 C 28.679688 7.039062 28.484375 6.84375 28.238281 6.84375 L 24.855469 6.84375 L 26.085938 5.609375 L 27.269531 4.421875 C 27.523438 4.167969 27.660156 3.828125 27.660156 3.46875 C 27.660156 3.109375 27.523438 2.773438 27.269531 2.515625 L 25.898438 1.144531 C 25.644531 0.890625 25.308594 0.75 24.949219 0.75 C 24.589844 0.75 24.253906 0.890625 24 1.144531 L 22.816406 2.332031 L 21.386719 3.765625 L 18.320312 6.84375 L 4.652344 6.84375 L 4.652344 2.472656 C 4.652344 2.226562 4.457031 2.03125 4.214844 2.03125 C 2.304688 2.03125 0.75 3.589844 0.75 5.503906 L 0.75 24.265625 C 0.75 24.300781 0.753906 24.332031 0.761719 24.363281 C 0.820312 25.175781 1.171875 25.929688 1.757812 26.503906 C 2.382812 27.117188 3.210938 27.453125 4.085938 27.453125 L 17.539062 27.453125 L 15.007812 29.996094 C 14.882812 30.121094 14.84375 30.3125 14.910156 30.476562 C 14.980469 30.640625 15.140625 30.75 15.316406 30.75 L 30.308594 30.75 C 30.554688 30.75 30.75 30.550781 30.75 30.308594 L 30.75 15.269531 C 30.75 15.089844 30.644531 14.929688 30.476562 14.859375 Z M 24.625 1.769531 C 24.804688 1.589844 25.097656 1.589844 25.277344 1.769531 L 26.644531 3.140625 C 26.824219 3.324219 26.824219 3.617188 26.644531 3.796875 L 25.773438 4.671875 L 23.75 2.644531 Z M 23.128906 3.269531 L 25.148438 5.296875 L 24.34375 6.109375 L 22.320312 4.078125 Z M 13.796875 16.320312 L 12.535156 16.765625 L 11.695312 15.921875 L 12.140625 14.660156 Z M 26.871094 22.628906 L 22.628906 26.871094 C 22.582031 26.917969 22.613281 27 22.679688 27 L 27 27 L 27 22.679688 C 27 22.613281 26.917969 22.582031 26.871094 22.628906 Z M 12 13.875 L 14.625 16.5 L 24.375 6.75 L 21.75 4.125 Z M 12 13.875 " clip-rule="evenodd"/></clipPath><linearGradient x1="2.245536" gradientTransform="matrix(0.75, 0, 0, 0.75, 0.0000005, 0)" y1="-0.12795" x2="40.170828" gradientUnits="userSpaceOnUse" y2="41.750982" id="ecae422414"><stop stop-opacity="1" stop-color="rgb(100%, 34.098816%, 34.098816%)" offset="0"/><stop stop-opacity="1" stop-color="rgb(100%, 34.098816%, 34.098816%)" offset="0.25"/><stop stop-opacity="1" stop-color="rgb(100%, 34.066772%, 34.066772%)" offset="0.265625"/><stop stop-opacity="1" stop-color="rgb(100%, 33.863831%, 33.863831%)" offset="0.28125"/><stop stop-opacity="1" stop-color="rgb(100%, 33.518982%, 33.518982%)" offset="0.296875"/><stop stop-opacity="1" stop-color="rgb(100%, 33.174133%, 33.174133%)" offset="0.3125"/><stop stop-opacity="1" stop-color="rgb(100%, 32.827759%, 32.827759%)" offset="0.328125"/><stop stop-opacity="1" stop-color="rgb(100%, 32.48291%, 32.48291%)" offset="0.34375"/><stop stop-opacity="1" stop-color="rgb(100%, 32.138062%, 32.138062%)" offset="0.359375"/><stop stop-opacity="1" stop-color="rgb(100%, 31.793213%, 31.793213%)" offset="0.375"/><stop stop-opacity="1" stop-color="rgb(100%, 31.448364%, 31.448364%)" offset="0.390625"/><stop stop-opacity="1" stop-color="rgb(100%, 31.103516%, 31.103516%)" offset="0.40625"/><stop stop-opacity="1" stop-color="rgb(100%, 30.758667%, 30.758667%)" offset="0.421875"/><stop stop-opacity="1" stop-color="rgb(100%, 30.412292%, 30.412292%)" offset="0.4375"/><stop stop-opacity="1" stop-color="rgb(100%, 30.067444%, 30.067444%)" offset="0.453125"/><stop stop-opacity="1" stop-color="rgb(100%, 29.722595%, 29.722595%)" offset="0.46875"/><stop stop-opacity="1" stop-color="rgb(100%, 29.377747%, 29.377747%)" offset="0.47523"/><stop stop-opacity="1" stop-color="rgb(100%, 29.205322%, 29.205322%)" offset="0.484375"/><stop stop-opacity="1" stop-color="rgb(100%, 29.032898%, 29.032898%)" offset="0.5"/><stop stop-opacity="1" stop-color="rgb(100%, 28.688049%, 28.688049%)" offset="0.515625"/><stop stop-opacity="1" stop-color="rgb(100%, 28.343201%, 28.343201%)" offset="0.52477"/><stop stop-opacity="1" stop-color="rgb(100%, 28.170776%, 28.170776%)" offset="0.53125"/><stop stop-opacity="1" stop-color="rgb(100%, 27.998352%, 27.998352%)" offset="0.546875"/><stop stop-opacity="1" stop-color="rgb(100%, 27.651978%, 27.651978%)" offset="0.5625"/><stop stop-opacity="1" stop-color="rgb(100%, 27.307129%, 27.307129%)" offset="0.578125"/><stop stop-opacity="1" stop-color="rgb(100%, 26.96228%, 26.96228%)" offset="0.59375"/><stop stop-opacity="1" stop-color="rgb(100%, 26.617432%, 26.617432%)" offset="0.609375"/><stop stop-opacity="1" stop-color="rgb(100%, 26.272583%, 26.272583%)" offset="0.625"/><stop stop-opacity="1" stop-color="rgb(100%, 25.927734%, 25.927734%)" offset="0.640625"/><stop stop-opacity="1" stop-color="rgb(100%, 25.582886%, 25.582886%)" offset="0.65625"/><stop stop-opacity="1" stop-color="rgb(100%, 25.236511%, 25.236511%)" offset="0.671875"/><stop stop-opacity="1" stop-color="rgb(100%, 24.891663%, 24.891663%)" offset="0.6875"/><stop stop-opacity="1" stop-color="rgb(100%, 24.546814%, 24.546814%)" offset="0.703125"/><stop stop-opacity="1" stop-color="rgb(100%, 24.201965%, 24.201965%)" offset="0.71875"/><stop stop-opacity="1" stop-color="rgb(100%, 23.857117%, 23.857117%)" offset="0.734375"/><stop stop-opacity="1" stop-color="rgb(100%, 23.512268%, 23.512268%)" offset="0.75"/><stop stop-opacity="1" stop-color="rgb(100%, 23.167419%, 23.167419%)" offset="0.765625"/><stop stop-opacity="1" stop-color="rgb(100%, 22.822571%, 22.822571%)" offset="0.78125"/><stop stop-opacity="1" stop-color="rgb(100%, 22.476196%, 22.476196%)" offset="0.796875"/><stop stop-opacity="1" stop-color="rgb(100%, 22.131348%, 22.131348%)" offset="0.8125"/><stop stop-opacity="1" stop-color="rgb(100%, 21.786499%, 21.786499%)" offset="0.828125"/><stop stop-opacity="1" stop-color="rgb(100%, 21.44165%, 21.44165%)" offset="0.84375"/><stop stop-opacity="1" stop-color="rgb(100%, 21.096802%, 21.096802%)" offset="0.859375"/><stop stop-opacity="1" stop-color="rgb(100%, 20.751953%, 20.751953%)" offset="0.875"/><stop stop-opacity="1" stop-color="rgb(100%, 20.407104%, 20.407104%)" offset="0.890625"/><stop stop-opacity="1" stop-color="rgb(100%, 20.06073%, 20.06073%)" offset="0.90625"/><stop stop-opacity="1" stop-color="rgb(100%, 19.715881%, 19.715881%)" offset="0.921875"/><stop stop-opacity="1" stop-color="rgb(100%, 19.371033%, 19.371033%)" offset="0.9375"/><stop stop-opacity="1" stop-color="rgb(100%, 19.198608%, 19.198608%)" offset="1"/></linearGradient><clipPath id="ce0205f410"><rect x="0" width="32" y="0" height="31"/></clipPath><clipPath id="3899a254b5"><path d="M 21 21 L 28 21 L 28 28 L 21 28 Z M 21 21 " clip-rule="nonzero"/></clipPath><clipPath id="903263b6ca"><path d="M 27.300781 21.941406 C 27.136719 21.871094 26.945312 21.910156 26.820312 22.035156 L 22.007812 26.863281 C 21.882812 26.992188 21.84375 27.179688 21.914062 27.347656 C 21.980469 27.511719 22.140625 27.617188 22.320312 27.617188 L 27.132812 27.617188 C 27.375 27.617188 27.570312 27.421875 27.570312 27.175781 L 27.570312 22.347656 C 27.570312 22.171875 27.464844 22.007812 27.300781 21.941406 Z M 23.382812 26.734375 L 26.691406 23.414062 L 26.691406 26.734375 Z M 23.382812 26.734375 " clip-rule="nonzero"/></clipPath><linearGradient x1="29.363578" gradientTransform="matrix(0.75, 0, 0, 0.75, 0.0000005, 0)" y1="28.947576" x2="36.629746" gradientUnits="userSpaceOnUse" y2="36.945224" id="66c51aa795"><stop stop-opacity="1" stop-color="rgb(100%, 34.098816%, 34.098816%)" offset="0"/><stop stop-opacity="1" stop-color="rgb(100%, 34.098816%, 34.098816%)" offset="0.25"/><stop stop-opacity="1" stop-color="rgb(100%, 33.943176%, 33.943176%)" offset="0.28125"/><stop stop-opacity="1" stop-color="rgb(100%, 33.613586%, 33.613586%)" offset="0.296875"/><stop stop-opacity="1" stop-color="rgb(100%, 33.265686%, 33.265686%)" offset="0.3125"/><stop stop-opacity="1" stop-color="rgb(100%, 32.919312%, 32.919312%)" offset="0.328125"/><stop stop-opacity="1" stop-color="rgb(100%, 32.571411%, 32.571411%)" offset="0.34375"/><stop stop-opacity="1" stop-color="rgb(100%, 32.225037%, 32.225037%)" offset="0.359375"/><stop stop-opacity="1" stop-color="rgb(100%, 31.877136%, 31.877136%)" offset="0.375"/><stop stop-opacity="1" stop-color="rgb(100%, 31.530762%, 31.530762%)" offset="0.390625"/><stop stop-opacity="1" stop-color="rgb(100%, 31.182861%, 31.182861%)" offset="0.40625"/><stop stop-opacity="1" stop-color="rgb(100%, 30.836487%, 30.836487%)" offset="0.421875"/><stop stop-opacity="1" stop-color="rgb(100%, 30.488586%, 30.488586%)" offset="0.4375"/><stop stop-opacity="1" stop-color="rgb(100%, 30.142212%, 30.142212%)" offset="0.453125"/><stop stop-opacity="1" stop-color="rgb(100%, 29.794312%, 29.794312%)" offset="0.46875"/><stop stop-opacity="1" stop-color="rgb(100%, 29.447937%, 29.447937%)" offset="0.47524"/><stop stop-opacity="1" stop-color="rgb(100%, 29.273987%, 29.273987%)" offset="0.484375"/><stop stop-opacity="1" stop-color="rgb(100%, 29.100037%, 29.100037%)" offset="0.5"/><stop stop-opacity="1" stop-color="rgb(100%, 28.753662%, 28.753662%)" offset="0.515625"/><stop stop-opacity="1" stop-color="rgb(100%, 28.405762%, 28.405762%)" offset="0.52476"/><stop stop-opacity="1" stop-color="rgb(100%, 28.233337%, 28.233337%)" offset="0.53125"/><stop stop-opacity="1" stop-color="rgb(100%, 28.059387%, 28.059387%)" offset="0.546875"/><stop stop-opacity="1" stop-color="rgb(100%, 27.711487%, 27.711487%)" offset="0.5625"/><stop stop-opacity="1" stop-color="rgb(100%, 27.365112%, 27.365112%)" offset="0.578125"/><stop stop-opacity="1" stop-color="rgb(100%, 27.017212%, 27.017212%)" offset="0.59375"/><stop stop-opacity="1" stop-color="rgb(100%, 26.670837%, 26.670837%)" offset="0.609375"/><stop stop-opacity="1" stop-color="rgb(100%, 26.322937%, 26.322937%)" offset="0.625"/><stop stop-opacity="1" stop-color="rgb(100%, 25.976562%, 25.976562%)" offset="0.640625"/><stop stop-opacity="1" stop-color="rgb(100%, 25.628662%, 25.628662%)" offset="0.65625"/><stop stop-opacity="1" stop-color="rgb(100%, 25.280762%, 25.280762%)" offset="0.671875"/><stop stop-opacity="1" stop-color="rgb(100%, 24.934387%, 24.934387%)" offset="0.6875"/><stop stop-opacity="1" stop-color="rgb(100%, 24.586487%, 24.586487%)" offset="0.703125"/><stop stop-opacity="1" stop-color="rgb(100%, 24.240112%, 24.240112%)" offset="0.71875"/><stop stop-opacity="1" stop-color="rgb(100%, 23.892212%, 23.892212%)" offset="0.734375"/><stop stop-opacity="1" stop-color="rgb(100%, 23.545837%, 23.545837%)" offset="0.75"/><stop stop-opacity="1" stop-color="rgb(100%, 23.197937%, 23.197937%)" offset="0.765625"/><stop stop-opacity="1" stop-color="rgb(100%, 22.851562%, 22.851562%)" offset="0.78125"/><stop stop-opacity="1" stop-color="rgb(100%, 22.503662%, 22.503662%)" offset="0.796875"/><stop stop-opacity="1" stop-color="rgb(100%, 22.157288%, 22.157288%)" offset="0.8125"/><stop stop-opacity="1" stop-color="rgb(100%, 21.809387%, 21.809387%)" offset="0.828125"/><stop stop-opacity="1" stop-color="rgb(100%, 21.463013%, 21.463013%)" offset="0.84375"/><stop stop-opacity="1" stop-color="rgb(100%, 21.115112%, 21.115112%)" offset="0.859375"/><stop stop-opacity="1" stop-color="rgb(100%, 20.768738%, 20.768738%)" offset="0.875"/><stop stop-opacity="1" stop-color="rgb(100%, 20.420837%, 20.420837%)" offset="0.890625"/><stop stop-opacity="1" stop-color="rgb(100%, 20.074463%, 20.074463%)" offset="0.90625"/><stop stop-opacity="1" stop-color="rgb(100%, 19.726562%, 19.726562%)" offset="0.921875"/><stop stop-opacity="1" stop-color="rgb(100%, 19.380188%, 19.380188%)" offset="0.9375"/><stop stop-opacity="1" stop-color="rgb(100%, 19.20166%, 19.20166%)" offset="1"/></linearGradient><linearGradient x1="29.244841" gradientTransform="matrix(1, 0, 0, 1, 0, 0)" y1="28.816886" x2="36.748483" gradientUnits="userSpaceOnUse" y2="37.075914" id="2427459dda"><stop stop-opacity="1" stop-color="rgb(100%, 34.098816%, 34.098816%)" offset="0"/><stop stop-opacity="1" stop-color="rgb(100%, 34.098816%, 34.098816%)" offset="0.25"/><stop stop-opacity="1" stop-color="rgb(100%, 34.022522%, 34.022522%)" offset="0.28125"/><stop stop-opacity="1" stop-color="rgb(100%, 33.766174%, 33.766174%)" offset="0.296875"/><stop stop-opacity="1" stop-color="rgb(100%, 33.407593%, 33.407593%)" offset="0.3125"/><stop stop-opacity="1" stop-color="rgb(100%, 33.049011%, 33.049011%)" offset="0.328125"/><stop stop-opacity="1" stop-color="rgb(100%, 32.69043%, 32.69043%)" offset="0.34375"/><stop stop-opacity="1" stop-color="rgb(100%, 32.331848%, 32.331848%)" offset="0.359375"/><stop stop-opacity="1" stop-color="rgb(100%, 31.973267%, 31.973267%)" offset="0.375"/><stop stop-opacity="1" stop-color="rgb(100%, 31.614685%, 31.614685%)" offset="0.390625"/><stop stop-opacity="1" stop-color="rgb(100%, 31.256104%, 31.256104%)" offset="0.40625"/><stop stop-opacity="1" stop-color="rgb(100%, 30.897522%, 30.897522%)" offset="0.421875"/><stop stop-opacity="1" stop-color="rgb(100%, 30.53894%, 30.53894%)" offset="0.4375"/><stop stop-opacity="1" stop-color="rgb(100%, 30.180359%, 30.180359%)" offset="0.453125"/><stop stop-opacity="1" stop-color="rgb(100%, 29.823303%, 29.823303%)" offset="0.46875"/><stop stop-opacity="1" stop-color="rgb(100%, 29.464722%, 29.464722%)" offset="0.475265"/><stop stop-opacity="1" stop-color="rgb(100%, 29.286194%, 29.286194%)" offset="0.484375"/><stop stop-opacity="1" stop-color="rgb(100%, 29.10614%, 29.10614%)" offset="0.5"/><stop stop-opacity="1" stop-color="rgb(100%, 28.747559%, 28.747559%)" offset="0.515625"/><stop stop-opacity="1" stop-color="rgb(100%, 28.388977%, 28.388977%)" offset="0.524735"/><stop stop-opacity="1" stop-color="rgb(100%, 28.210449%, 28.210449%)" offset="0.53125"/><stop stop-opacity="1" stop-color="rgb(100%, 28.030396%, 28.030396%)" offset="0.546875"/><stop stop-opacity="1" stop-color="rgb(100%, 27.671814%, 27.671814%)" offset="0.5625"/><stop stop-opacity="1" stop-color="rgb(100%, 27.313232%, 27.313232%)" offset="0.578125"/><stop stop-opacity="1" stop-color="rgb(100%, 26.954651%, 26.954651%)" offset="0.59375"/><stop stop-opacity="1" stop-color="rgb(100%, 26.596069%, 26.596069%)" offset="0.609375"/><stop stop-opacity="1" stop-color="rgb(100%, 26.237488%, 26.237488%)" offset="0.625"/><stop stop-opacity="1" stop-color="rgb(100%, 25.878906%, 25.878906%)" offset="0.640625"/><stop stop-opacity="1" stop-color="rgb(100%, 25.520325%, 25.520325%)" offset="0.65625"/><stop stop-opacity="1" stop-color="rgb(100%, 25.161743%, 25.161743%)" offset="0.671875"/><stop stop-opacity="1" stop-color="rgb(100%, 24.803162%, 24.803162%)" offset="0.6875"/><stop stop-opacity="1" stop-color="rgb(100%, 24.44458%, 24.44458%)" offset="0.703125"/><stop stop-opacity="1" stop-color="rgb(100%, 24.085999%, 24.085999%)" offset="0.71875"/><stop stop-opacity="1" stop-color="rgb(100%, 23.727417%, 23.727417%)" offset="0.734375"/><stop stop-opacity="1" stop-color="rgb(100%, 23.368835%, 23.368835%)" offset="0.75"/><stop stop-opacity="1" stop-color="rgb(100%, 23.010254%, 23.010254%)" offset="0.765625"/><stop stop-opacity="1" stop-color="rgb(100%, 22.653198%, 22.653198%)" offset="0.78125"/><stop stop-opacity="1" stop-color="rgb(100%, 22.294617%, 22.294617%)" offset="0.796875"/><stop stop-opacity="1" stop-color="rgb(100%, 21.936035%, 21.936035%)" offset="0.8125"/><stop stop-opacity="1" stop-color="rgb(100%, 21.577454%, 21.577454%)" offset="0.828125"/><stop stop-opacity="1" stop-color="rgb(100%, 21.218872%, 21.218872%)" offset="0.84375"/><stop stop-opacity="1" stop-color="rgb(100%, 20.860291%, 20.860291%)" offset="0.859375"/><stop stop-opacity="1" stop-color="rgb(100%, 20.501709%, 20.501709%)" offset="0.875"/><stop stop-opacity="1" stop-color="rgb(100%, 20.143127%, 20.143127%)" offset="0.890625"/><stop stop-opacity="1" stop-color="rgb(100%, 19.784546%, 19.784546%)" offset="0.90625"/><stop stop-opacity="1" stop-color="rgb(100%, 19.425964%, 19.425964%)" offset="0.921875"/><stop stop-opacity="1" stop-color="rgb(100%, 19.223022%, 19.223022%)" offset="0.9375"/><stop stop-opacity="1" stop-color="rgb(100%, 19.198608%, 19.198608%)" offset="1"/></linearGradient><clipPath id="482a81483d"><path d="M 0 0 L 31 0 L 31 31 L 0 31 Z M 0 0 " clip-rule="nonzero"/></clipPath><clipPath id="3901b447ed"><path d="M 30.476562 14.859375 C 30.3125 14.792969 30.125 14.828125 30 14.957031 L 28.679688 16.277344 L 28.679688 7.285156 C 28.679688 7.039062 28.484375 6.84375 28.238281 6.84375 L 24.855469 6.84375 L 26.085938 5.609375 L 27.269531 4.421875 C 27.523438 4.167969 27.660156 3.828125 27.660156 3.46875 C 27.660156 3.109375 27.523438 2.773438 27.269531 2.515625 L 25.898438 1.144531 C 25.644531 0.890625 25.308594 0.75 24.949219 0.75 C 24.589844 0.75 24.253906 0.890625 24 1.144531 L 22.816406 2.332031 L 21.386719 3.765625 L 18.320312 6.84375 L 4.652344 6.84375 L 4.652344 2.472656 C 4.652344 2.226562 4.457031 2.03125 4.214844 2.03125 C 2.304688 2.03125 0.75 3.589844 0.75 5.503906 L 0.75 24.265625 C 0.75 24.300781 0.753906 24.332031 0.761719 24.363281 C 0.820312 25.175781 1.171875 25.929688 1.757812 26.503906 C 2.382812 27.117188 3.210938 27.453125 4.085938 27.453125 L 17.539062 27.453125 L 15.007812 29.996094 C 14.882812 30.121094 14.84375 30.3125 14.910156 30.476562 C 14.980469 30.640625 15.140625 30.75 15.316406 30.75 L 30.308594 30.75 C 30.554688 30.75 30.75 30.550781 30.75 30.308594 L 30.75 15.269531 C 30.75 15.089844 30.644531 14.929688 30.476562 14.859375 Z M 24.625 1.769531 C 24.804688 1.589844 25.097656 1.589844 25.277344 1.769531 L 26.644531 3.140625 C 26.824219 3.324219 26.824219 3.617188 26.644531 3.796875 L 25.773438 4.671875 L 23.75 2.644531 Z M 23.128906 3.269531 L 25.148438 5.296875 L 24.34375 6.109375 L 22.320312 4.078125 Z M 29.871094 20.230469 L 29.058594 20.230469 C 28.8125 20.230469 28.617188 20.429688 28.617188 20.675781 C 28.617188 20.917969 28.8125 21.117188 29.058594 21.117188 L 29.871094 21.117188 L 29.871094 22.445312 L 29.058594 22.445312 C 28.8125 22.445312 28.617188 22.644531 28.617188 22.890625 C 28.617188 23.132812 28.8125 23.332031 29.058594 23.332031 L 29.871094 23.332031 L 29.871094 24.660156 L 29.058594 24.660156 C 28.8125 24.660156 28.617188 24.859375 28.617188 25.101562 C 28.617188 25.347656 28.8125 25.546875 29.058594 25.546875 L 29.871094 25.546875 L 29.871094 26.875 L 29.058594 26.875 C 28.8125 26.875 28.617188 27.074219 28.617188 27.316406 C 28.617188 27.5625 28.8125 27.761719 29.058594 27.761719 L 29.871094 27.761719 L 29.871094 29.867188 L 16.382812 29.867188 L 20.828125 25.40625 C 21 25.230469 21 24.953125 20.828125 24.78125 C 20.808594 24.761719 20.789062 24.742188 20.765625 24.726562 C 20.59375 24.609375 20.359375 24.628906 20.207031 24.78125 L 18.421875 26.570312 L 4.085938 26.570312 C 2.75 26.570312 1.675781 25.523438 1.632812 24.1875 C 1.636719 24.101562 1.640625 24.019531 1.652344 23.9375 C 1.65625 23.898438 1.664062 23.859375 1.671875 23.820312 C 1.671875 23.816406 1.671875 23.808594 1.671875 23.804688 C 1.679688 23.773438 1.683594 23.738281 1.691406 23.703125 C 1.695312 23.695312 1.699219 23.683594 1.699219 23.675781 C 1.707031 23.644531 1.714844 23.617188 1.722656 23.589844 C 1.726562 23.574219 1.730469 23.558594 1.734375 23.542969 C 1.742188 23.519531 1.746094 23.496094 1.753906 23.476562 C 1.761719 23.453125 1.769531 23.429688 1.777344 23.410156 C 1.78125 23.394531 1.789062 23.378906 1.792969 23.363281 C 1.804688 23.335938 1.816406 23.304688 1.828125 23.277344 C 1.832031 23.269531 1.832031 23.261719 1.835938 23.253906 C 1.851562 23.21875 1.867188 23.183594 1.882812 23.148438 C 1.886719 23.144531 1.886719 23.144531 1.886719 23.144531 C 2.230469 22.429688 2.894531 21.894531 3.6875 21.730469 C 3.691406 21.730469 3.691406 21.730469 3.695312 21.726562 C 3.730469 21.722656 3.769531 21.714844 3.804688 21.707031 C 3.8125 21.707031 3.816406 21.707031 3.824219 21.707031 C 3.855469 21.699219 3.890625 21.695312 3.925781 21.691406 C 3.933594 21.691406 3.945312 21.691406 3.953125 21.6875 C 3.984375 21.6875 4.019531 21.683594 4.050781 21.679688 C 4.0625 21.679688 4.074219 21.679688 4.082031 21.679688 C 4.125 21.675781 4.167969 21.675781 4.214844 21.675781 C 4.457031 21.675781 4.652344 21.476562 4.652344 21.234375 L 4.652344 18.03125 C 4.652344 17.789062 4.457031 17.589844 4.214844 17.589844 C 3.96875 17.589844 3.773438 17.789062 3.773438 18.03125 L 3.773438 20.820312 C 3.03125 20.914062 2.339844 21.246094 1.792969 21.78125 C 1.738281 21.835938 1.683594 21.894531 1.628906 21.953125 L 1.628906 5.503906 C 1.628906 4.226562 2.558594 3.160156 3.773438 2.949219 L 3.773438 16.265625 C 3.773438 16.507812 3.96875 16.707031 4.214844 16.707031 C 4.457031 16.707031 4.652344 16.507812 4.652344 16.265625 L 4.652344 7.726562 L 17.441406 7.726562 L 15.007812 10.167969 C 14.835938 10.339844 14.835938 10.621094 15.007812 10.792969 C 15.179688 10.964844 15.457031 10.964844 15.628906 10.792969 L 18.816406 7.597656 L 21.699219 4.703125 L 23.71875 6.734375 L 23.480469 6.972656 L 14.601562 15.878906 L 12.582031 13.851562 L 14.332031 12.09375 C 14.503906 11.921875 14.503906 11.640625 14.332031 11.46875 C 14.160156 11.296875 13.878906 11.296875 13.707031 11.46875 L 11.648438 13.539062 C 11.636719 13.550781 11.625 13.5625 11.617188 13.574219 C 11.613281 13.578125 11.609375 13.582031 11.605469 13.585938 C 11.601562 13.59375 11.59375 13.601562 11.589844 13.609375 C 11.585938 13.617188 11.582031 13.621094 11.578125 13.625 C 11.574219 13.632812 11.570312 13.644531 11.566406 13.652344 C 11.5625 13.65625 11.5625 13.664062 11.558594 13.667969 C 11.554688 13.675781 11.550781 13.683594 11.546875 13.695312 C 11.546875 13.699219 11.542969 13.699219 11.542969 13.703125 L 10.683594 16.140625 L 10.101562 17.804688 C 10.09375 17.824219 10.085938 17.847656 10.082031 17.871094 L 8.617188 17.871094 C 8.375 17.871094 8.179688 18.070312 8.179688 18.3125 C 8.179688 18.558594 8.375 18.753906 8.617188 18.753906 L 20.8125 18.753906 C 21.054688 18.753906 21.253906 18.558594 21.253906 18.3125 C 21.253906 18.070312 21.054688 17.871094 20.8125 17.871094 L 12.0625 17.871094 L 14.75 16.921875 C 14.75 16.917969 14.753906 16.917969 14.757812 16.917969 C 14.765625 16.914062 14.777344 16.910156 14.785156 16.90625 C 14.789062 16.902344 14.792969 16.902344 14.800781 16.898438 C 14.808594 16.894531 14.820312 16.886719 14.828125 16.882812 C 14.832031 16.878906 14.835938 16.878906 14.839844 16.875 C 14.851562 16.867188 14.859375 16.859375 14.871094 16.851562 C 14.875 16.851562 14.875 16.851562 14.878906 16.847656 C 14.890625 16.835938 14.902344 16.828125 14.914062 16.816406 L 23.976562 7.726562 L 27.800781 7.726562 L 27.800781 17.164062 L 21.5 23.480469 C 21.328125 23.65625 21.328125 23.933594 21.5 24.105469 C 21.511719 24.117188 21.523438 24.128906 21.535156 24.136719 C 21.613281 24.203125 21.714844 24.234375 21.8125 24.234375 C 21.910156 24.234375 22.007812 24.203125 22.089844 24.136719 C 22.101562 24.128906 22.113281 24.117188 22.121094 24.105469 L 22.125 24.105469 L 29.871094 16.335938 Z M 13.796875 16.320312 L 12.535156 16.765625 L 11.695312 15.921875 L 12.140625 14.660156 Z M 13.796875 16.320312 " clip-rule="nonzero"/></clipPath><linearGradient x1="2.245536" gradientTransform="matrix(0.75, 0, 0, 0.75, 0.0000005, 0)" y1="-0.12795" x2="40.170826" gradientUnits="userSpaceOnUse" y2="41.75098" id="5b1a619038"><stop stop-opacity="1" stop-color="rgb(100%, 34.098816%, 34.098816%)" offset="0"/><stop stop-opacity="1" stop-color="rgb(100%, 34.098816%, 34.098816%)" offset="0.25"/><stop stop-opacity="1" stop-color="rgb(100%, 34.066772%, 34.066772%)" offset="0.265625"/><stop stop-opacity="1" stop-color="rgb(100%, 33.863831%, 33.863831%)" offset="0.28125"/><stop stop-opacity="1" stop-color="rgb(100%, 33.518982%, 33.518982%)" offset="0.296875"/><stop stop-opacity="1" stop-color="rgb(100%, 33.174133%, 33.174133%)" offset="0.3125"/><stop stop-opacity="1" stop-color="rgb(100%, 32.827759%, 32.827759%)" offset="0.328125"/><stop stop-opacity="1" stop-color="rgb(100%, 32.48291%, 32.48291%)" offset="0.34375"/><stop stop-opacity="1" stop-color="rgb(100%, 32.138062%, 32.138062%)" offset="0.359375"/><stop stop-opacity="1" stop-color="rgb(100%, 31.793213%, 31.793213%)" offset="0.375"/><stop stop-opacity="1" stop-color="rgb(100%, 31.448364%, 31.448364%)" offset="0.390625"/><stop stop-opacity="1" stop-color="rgb(100%, 31.103516%, 31.103516%)" offset="0.40625"/><stop stop-opacity="1" stop-color="rgb(100%, 30.758667%, 30.758667%)" offset="0.421875"/><stop stop-opacity="1" stop-color="rgb(100%, 30.412292%, 30.412292%)" offset="0.4375"/><stop stop-opacity="1" stop-color="rgb(100%, 30.067444%, 30.067444%)" offset="0.453125"/><stop stop-opacity="1" stop-color="rgb(100%, 29.722595%, 29.722595%)" offset="0.46875"/><stop stop-opacity="1" stop-color="rgb(100%, 29.377747%, 29.377747%)" offset="0.47523"/><stop stop-opacity="1" stop-color="rgb(100%, 29.205322%, 29.205322%)" offset="0.484375"/><stop stop-opacity="1" stop-color="rgb(100%, 29.032898%, 29.032898%)" offset="0.5"/><stop stop-opacity="1" stop-color="rgb(100%, 28.688049%, 28.688049%)" offset="0.515625"/><stop stop-opacity="1" stop-color="rgb(100%, 28.343201%, 28.343201%)" offset="0.52477"/><stop stop-opacity="1" stop-color="rgb(100%, 28.170776%, 28.170776%)" offset="0.53125"/><stop stop-opacity="1" stop-color="rgb(100%, 27.998352%, 27.998352%)" offset="0.546875"/><stop stop-opacity="1" stop-color="rgb(100%, 27.651978%, 27.651978%)" offset="0.5625"/><stop stop-opacity="1" stop-color="rgb(100%, 27.307129%, 27.307129%)" offset="0.578125"/><stop stop-opacity="1" stop-color="rgb(100%, 26.96228%, 26.96228%)" offset="0.59375"/><stop stop-opacity="1" stop-color="rgb(100%, 26.617432%, 26.617432%)" offset="0.609375"/><stop stop-opacity="1" stop-color="rgb(100%, 26.272583%, 26.272583%)" offset="0.625"/><stop stop-opacity="1" stop-color="rgb(100%, 25.927734%, 25.927734%)" offset="0.640625"/><stop stop-opacity="1" stop-color="rgb(100%, 25.582886%, 25.582886%)" offset="0.65625"/><stop stop-opacity="1" stop-color="rgb(100%, 25.236511%, 25.236511%)" offset="0.671875"/><stop stop-opacity="1" stop-color="rgb(100%, 24.891663%, 24.891663%)" offset="0.6875"/><stop stop-opacity="1" stop-color="rgb(100%, 24.546814%, 24.546814%)" offset="0.703125"/><stop stop-opacity="1" stop-color="rgb(100%, 24.201965%, 24.201965%)" offset="0.71875"/><stop stop-opacity="1" stop-color="rgb(100%, 23.857117%, 23.857117%)" offset="0.734375"/><stop stop-opacity="1" stop-color="rgb(100%, 23.512268%, 23.512268%)" offset="0.75"/><stop stop-opacity="1" stop-color="rgb(100%, 23.167419%, 23.167419%)" offset="0.765625"/><stop stop-opacity="1" stop-color="rgb(100%, 22.822571%, 22.822571%)" offset="0.78125"/><stop stop-opacity="1" stop-color="rgb(100%, 22.476196%, 22.476196%)" offset="0.796875"/><stop stop-opacity="1" stop-color="rgb(100%, 22.131348%, 22.131348%)" offset="0.8125"/><stop stop-opacity="1" stop-color="rgb(100%, 21.786499%, 21.786499%)" offset="0.828125"/><stop stop-opacity="1" stop-color="rgb(100%, 21.44165%, 21.44165%)" offset="0.84375"/><stop stop-opacity="1" stop-color="rgb(100%, 21.096802%, 21.096802%)" offset="0.859375"/><stop stop-opacity="1" stop-color="rgb(100%, 20.751953%, 20.751953%)" offset="0.875"/><stop stop-opacity="1" stop-color="rgb(100%, 20.407104%, 20.407104%)" offset="0.890625"/><stop stop-opacity="1" stop-color="rgb(100%, 20.06073%, 20.06073%)" offset="0.90625"/><stop stop-opacity="1" stop-color="rgb(100%, 19.715881%, 19.715881%)" offset="0.921875"/><stop stop-opacity="1" stop-color="rgb(100%, 19.371033%, 19.371033%)" offset="0.9375"/><stop stop-opacity="1" stop-color="rgb(100%, 19.198608%, 19.198608%)" offset="1"/></linearGradient><clipPath id="bebe6ae375"><path d="M 0 0 L 31.007812 0 L 31.007812 31.007812 L 0 31.007812 Z M 0 0 " clip-rule="nonzero"/></clipPath><linearGradient x1="2.12702" gradientTransform="matrix(1, 0, 0, 1, 0, 0)" y1="-0.258821" x2="40.289342" gradientUnits="userSpaceOnUse" y2="41.881852" id="15fae4d3a6"><stop stop-opacity="1" stop-color="rgb(100%, 34.098816%, 34.098816%)" offset="0"/><stop stop-opacity="1" stop-color="rgb(100%, 34.098816%, 34.098816%)" offset="0.25"/><stop stop-opacity="1" stop-color="rgb(100%, 33.909607%, 33.909607%)" offset="0.28125"/><stop stop-opacity="1" stop-color="rgb(100%, 33.547974%, 33.547974%)" offset="0.296875"/><stop stop-opacity="1" stop-color="rgb(100%, 33.200073%, 33.200073%)" offset="0.3125"/><stop stop-opacity="1" stop-color="rgb(100%, 32.852173%, 32.852173%)" offset="0.328125"/><stop stop-opacity="1" stop-color="rgb(100%, 32.505798%, 32.505798%)" offset="0.34375"/><stop stop-opacity="1" stop-color="rgb(100%, 32.157898%, 32.157898%)" offset="0.359375"/><stop stop-opacity="1" stop-color="rgb(100%, 31.811523%, 31.811523%)" offset="0.375"/><stop stop-opacity="1" stop-color="rgb(100%, 31.463623%, 31.463623%)" offset="0.390625"/><stop stop-opacity="1" stop-color="rgb(100%, 31.117249%, 31.117249%)" offset="0.40625"/><stop stop-opacity="1" stop-color="rgb(100%, 30.769348%, 30.769348%)" offset="0.421875"/><stop stop-opacity="1" stop-color="rgb(100%, 30.422974%, 30.422974%)" offset="0.4375"/><stop stop-opacity="1" stop-color="rgb(100%, 30.075073%, 30.075073%)" offset="0.453125"/><stop stop-opacity="1" stop-color="rgb(100%, 29.728699%, 29.728699%)" offset="0.46875"/><stop stop-opacity="1" stop-color="rgb(100%, 29.380798%, 29.380798%)" offset="0.47523"/><stop stop-opacity="1" stop-color="rgb(100%, 29.206848%, 29.206848%)" offset="0.484375"/><stop stop-opacity="1" stop-color="rgb(100%, 29.032898%, 29.032898%)" offset="0.5"/><stop stop-opacity="1" stop-color="rgb(100%, 28.686523%, 28.686523%)" offset="0.515625"/><stop stop-opacity="1" stop-color="rgb(100%, 28.338623%, 28.338623%)" offset="0.52477"/><stop stop-opacity="1" stop-color="rgb(100%, 28.166199%, 28.166199%)" offset="0.53125"/><stop stop-opacity="1" stop-color="rgb(100%, 27.992249%, 27.992249%)" offset="0.546875"/><stop stop-opacity="1" stop-color="rgb(100%, 27.644348%, 27.644348%)" offset="0.5625"/><stop stop-opacity="1" stop-color="rgb(100%, 27.297974%, 27.297974%)" offset="0.578125"/><stop stop-opacity="1" stop-color="rgb(100%, 26.950073%, 26.950073%)" offset="0.59375"/><stop stop-opacity="1" stop-color="rgb(100%, 26.603699%, 26.603699%)" offset="0.609375"/><stop stop-opacity="1" stop-color="rgb(100%, 26.255798%, 26.255798%)" offset="0.625"/><stop stop-opacity="1" stop-color="rgb(100%, 25.909424%, 25.909424%)" offset="0.640625"/><stop stop-opacity="1" stop-color="rgb(100%, 25.561523%, 25.561523%)" offset="0.65625"/><stop stop-opacity="1" stop-color="rgb(100%, 25.213623%, 25.213623%)" offset="0.671875"/><stop stop-opacity="1" stop-color="rgb(100%, 24.867249%, 24.867249%)" offset="0.6875"/><stop stop-opacity="1" stop-color="rgb(100%, 24.519348%, 24.519348%)" offset="0.703125"/><stop stop-opacity="1" stop-color="rgb(100%, 24.172974%, 24.172974%)" offset="0.71875"/><stop stop-opacity="1" stop-color="rgb(100%, 23.825073%, 23.825073%)" offset="0.734375"/><stop stop-opacity="1" stop-color="rgb(100%, 23.478699%, 23.478699%)" offset="0.75"/><stop stop-opacity="1" stop-color="rgb(100%, 23.130798%, 23.130798%)" offset="0.765625"/><stop stop-opacity="1" stop-color="rgb(100%, 22.784424%, 22.784424%)" offset="0.78125"/><stop stop-opacity="1" stop-color="rgb(100%, 22.436523%, 22.436523%)" offset="0.796875"/><stop stop-opacity="1" stop-color="rgb(100%, 22.090149%, 22.090149%)" offset="0.8125"/><stop stop-opacity="1" stop-color="rgb(100%, 21.742249%, 21.742249%)" offset="0.828125"/><stop stop-opacity="1" stop-color="rgb(100%, 21.394348%, 21.394348%)" offset="0.84375"/><stop stop-opacity="1" stop-color="rgb(100%, 21.047974%, 21.047974%)" offset="0.859375"/><stop stop-opacity="1" stop-color="rgb(100%, 20.700073%, 20.700073%)" offset="0.875"/><stop stop-opacity="1" stop-color="rgb(100%, 20.353699%, 20.353699%)" offset="0.890625"/><stop stop-opacity="1" stop-color="rgb(100%, 20.005798%, 20.005798%)" offset="0.90625"/><stop stop-opacity="1" stop-color="rgb(100%, 19.659424%, 19.659424%)" offset="0.921875"/><stop stop-opacity="1" stop-color="rgb(100%, 19.342041%, 19.342041%)" offset="0.9375"/><stop stop-opacity="1" stop-color="rgb(100%, 19.198608%, 19.198608%)" offset="1"/></linearGradient></defs><g clip-path="url(#db9539afef)"><g mask="url(#1ae898102c)"><g><g clip-path="url(#ce0205f410)"><g clip-path="url(#1ac91f7c81)"><g clip-path="url(#65bae0b6d9)"><path fill="url(#ecae422414)" d="M 0.75 0.75 L 0.75 30.75 L 30.75 30.75 L 30.75 0.75 Z M 0.75 0.75 " fill-rule="nonzero"/></g></g></g></g></g></g><g clip-path="url(#3899a254b5)"><g clip-path="url(#903263b6ca)"><path fill="url(#66c51aa795)" d="M 21.84375 21.871094 L 21.84375 27.617188 L 27.570312 27.617188 L 27.570312 21.871094 Z M 21.84375 21.871094 " fill-rule="nonzero"/></g></g><path stroke-linecap="butt" transform="matrix(0.75, 0, 0, 0.75, 0.0000005, 0)" fill="none" stroke-linejoin="miter" d="M 36.401043 29.25521 C 36.182293 29.16146 35.927085 29.213544 35.760418 29.38021 L 29.343751 35.817711 C 29.177085 35.989586 29.125001 36.239586 29.218751 36.463544 C 29.307293 36.682294 29.520835 36.822919 29.760418 36.822919 L 36.177085 36.822919 C 36.500002 36.822919 36.760418 36.562502 36.760418 36.234377 L 36.760418 29.796877 C 36.760418 29.562502 36.619793 29.343752 36.401043 29.25521 Z M 31.177085 35.645836 L 35.588543 31.218752 L 35.588543 35.645836 Z M 31.177085 35.645836 " stroke="url(#2427459dda)" stroke-width="0.25" stroke-miterlimit="4"/><g clip-path="url(#482a81483d)"><g clip-path="url(#3901b447ed)"><path fill="url(#5b1a619038)" d="M 0.75 0.75 L 0.75 30.75 L 30.75 30.75 L 30.75 0.75 Z M 0.75 0.75 " fill-rule="nonzero"/></g></g><g clip-path="url(#bebe6ae375)"><path stroke-linecap="butt" transform="matrix(0.75, 0, 0, 0.75, 0.0000005, 0)" fill="none" stroke-linejoin="miter" d="M 40.635419 19.812501 C 40.416669 19.72396 40.166669 19.770835 40.000002 19.94271 L 38.239585 21.703126 L 38.239585 9.713542 C 38.239585 9.385417 37.979168 9.125001 37.651043 9.125001 L 33.140627 9.125001 L 34.781252 7.479167 L 36.359377 5.895834 C 36.697918 5.557292 36.88021 5.104167 36.88021 4.625 C 36.88021 4.145834 36.697918 3.697917 36.359377 3.354167 L 34.531252 1.526042 C 34.19271 1.1875 33.744793 1 33.265627 1 C 32.78646 1 32.338543 1.1875 32.000001 1.526042 L 30.421876 3.109375 L 28.515626 5.020834 L 24.427084 9.125001 L 6.203125 9.125001 L 6.203125 3.296875 C 6.203125 2.96875 5.942708 2.708334 5.619791 2.708334 C 3.072916 2.708334 0.999999 4.786459 0.999999 7.338542 L 0.999999 32.354169 C 0.999999 32.401044 1.005208 32.44271 1.015624 32.484377 C 1.093749 33.567711 1.562499 34.572919 2.343749 35.338544 C 3.177083 36.156252 4.28125 36.604169 5.447916 36.604169 L 23.385418 36.604169 L 20.010417 39.994794 C 19.843751 40.161461 19.791667 40.416669 19.880209 40.635419 C 19.973959 40.854169 20.187501 41.000003 20.421876 41.000003 L 40.41146 41.000003 C 40.739585 41.000003 41.000002 40.734378 41.000002 40.411461 L 41.000002 20.359376 C 41.000002 20.119793 40.859377 19.906251 40.635419 19.812501 Z M 32.833335 2.359375 C 33.072918 2.119792 33.463543 2.119792 33.703127 2.359375 L 35.526043 4.1875 C 35.765627 4.432292 35.765627 4.822917 35.526043 5.0625 L 34.364585 6.229167 L 31.666668 3.526042 Z M 30.838543 4.359375 L 33.531252 7.0625 L 32.458335 8.145834 L 29.760418 5.4375 Z M 39.828127 26.97396 L 38.744794 26.97396 C 38.416669 26.97396 38.156252 27.239585 38.156252 27.56771 C 38.156252 27.890627 38.416669 28.156252 38.744794 28.156252 L 39.828127 28.156252 L 39.828127 29.927085 L 38.744794 29.927085 C 38.416669 29.927085 38.156252 30.19271 38.156252 30.520835 C 38.156252 30.843752 38.416669 31.109377 38.744794 31.109377 L 39.828127 31.109377 L 39.828127 32.88021 L 38.744794 32.88021 C 38.416669 32.88021 38.156252 33.145836 38.156252 33.468752 C 38.156252 33.796877 38.416669 34.062502 38.744794 34.062502 L 39.828127 34.062502 L 39.828127 35.833336 L 38.744794 35.833336 C 38.416669 35.833336 38.156252 36.098961 38.156252 36.421877 C 38.156252 36.750002 38.416669 37.015627 38.744794 37.015627 L 39.828127 37.015627 L 39.828127 39.822919 L 21.843751 39.822919 L 27.770834 33.875002 C 28.000001 33.640627 28.000001 33.270836 27.770834 33.041669 C 27.744793 33.015627 27.718751 32.989585 27.687501 32.968752 C 27.458334 32.812502 27.145834 32.838544 26.942709 33.041669 L 24.562501 35.427086 L 5.447916 35.427086 C 3.666666 35.427086 2.234374 34.031252 2.177083 32.250002 C 2.182291 32.135419 2.187499 32.026044 2.203124 31.916669 C 2.208333 31.864585 2.218749 31.812502 2.229166 31.760419 C 2.229166 31.75521 2.229166 31.744794 2.229166 31.739585 C 2.239583 31.697919 2.244791 31.651044 2.255208 31.604169 C 2.260416 31.593752 2.265624 31.578127 2.265624 31.56771 C 2.276041 31.526044 2.286458 31.489585 2.296874 31.453127 C 2.302083 31.432294 2.307291 31.41146 2.312499 31.390627 C 2.322916 31.359377 2.328124 31.328127 2.338541 31.302085 C 2.348958 31.270835 2.359374 31.239585 2.369791 31.213544 C 2.374999 31.19271 2.385416 31.171877 2.390624 31.151044 C 2.406249 31.114585 2.421874 31.072919 2.437499 31.03646 C 2.442708 31.026044 2.442708 31.015627 2.447916 31.00521 C 2.468749 30.958335 2.489583 30.91146 2.510416 30.864585 C 2.515624 30.859377 2.515624 30.859377 2.515624 30.859377 C 2.973958 29.906252 3.859375 29.19271 4.916666 28.97396 C 4.921875 28.97396 4.921875 28.97396 4.927083 28.968752 C 4.973958 28.963544 5.026041 28.953127 5.072916 28.94271 C 5.083333 28.94271 5.088541 28.94271 5.098958 28.94271 C 5.140625 28.932294 5.1875 28.927085 5.234375 28.921877 C 5.244791 28.921877 5.260416 28.921877 5.270833 28.916669 C 5.3125 28.916669 5.359375 28.91146 5.401041 28.906252 C 5.416666 28.906252 5.432291 28.906252 5.442708 28.906252 C 5.5 28.901044 5.557291 28.901044 5.619791 28.901044 C 5.942708 28.901044 6.203125 28.635419 6.203125 28.312502 L 6.203125 24.041668 C 6.203125 23.718752 5.942708 23.453127 5.619791 23.453127 C 5.291666 23.453127 5.03125 23.718752 5.03125 24.041668 L 5.03125 27.760418 C 4.041666 27.885418 3.119791 28.328127 2.390624 29.041669 C 2.317708 29.114585 2.244791 29.19271 2.171874 29.270835 L 2.171874 7.338542 C 2.171874 5.635417 3.411458 4.213542 5.03125 3.932292 L 5.03125 21.687501 C 5.03125 22.010418 5.291666 22.276043 5.619791 22.276043 C 5.942708 22.276043 6.203125 22.010418 6.203125 21.687501 L 6.203125 10.302084 L 23.255209 10.302084 L 20.010417 13.557293 C 19.781251 13.786459 19.781251 14.161459 20.010417 14.390626 C 20.239584 14.619793 20.609376 14.619793 20.838542 14.390626 L 25.088543 10.130209 L 28.932293 6.270834 L 31.625001 8.979167 L 31.307293 9.296876 L 19.468751 21.171876 L 16.776042 18.468751 L 19.109376 16.125001 C 19.338542 15.895834 19.338542 15.520834 19.109376 15.291668 C 18.880209 15.062501 18.505209 15.062501 18.276042 15.291668 L 15.53125 18.052085 C 15.515625 18.06771 15.5 18.083335 15.489584 18.09896 C 15.484375 18.104168 15.479167 18.109376 15.473959 18.114585 C 15.46875 18.125001 15.458334 18.135418 15.453125 18.145835 C 15.447917 18.156251 15.442709 18.16146 15.4375 18.166668 C 15.432292 18.177085 15.427084 18.19271 15.421875 18.203126 C 15.416667 18.208335 15.416667 18.218751 15.411459 18.22396 C 15.40625 18.234376 15.401042 18.244793 15.395834 18.260418 C 15.395834 18.265626 15.390625 18.265626 15.390625 18.270835 L 14.244792 21.520835 L 13.46875 23.739585 C 13.458334 23.765627 13.447917 23.796877 13.442709 23.828127 L 11.489583 23.828127 C 11.166667 23.828127 10.90625 24.093752 10.90625 24.416668 C 10.90625 24.744793 11.166667 25.00521 11.489583 25.00521 L 27.750001 25.00521 C 28.072918 25.00521 28.338543 24.744793 28.338543 24.416668 C 28.338543 24.093752 28.072918 23.828127 27.750001 23.828127 L 16.083334 23.828127 L 19.666667 22.562501 C 19.666667 22.557293 19.671876 22.557293 19.677084 22.557293 C 19.687501 22.552085 19.703126 22.546876 19.713542 22.541668 C 19.718751 22.53646 19.723959 22.53646 19.734376 22.531251 C 19.744792 22.526043 19.760417 22.515626 19.770834 22.510418 C 19.776042 22.50521 19.781251 22.50521 19.786459 22.500001 C 19.802084 22.489585 19.812501 22.479168 19.828126 22.468751 C 19.833334 22.468751 19.833334 22.468751 19.838542 22.463543 C 19.854167 22.447918 19.869792 22.437501 19.885417 22.421876 L 31.968751 10.302084 L 37.06771 10.302084 L 37.06771 22.885418 L 28.666668 31.307294 C 28.437501 31.541669 28.437501 31.91146 28.666668 32.140627 C 28.682293 32.156252 28.697918 32.171877 28.713543 32.182294 C 28.81771 32.270835 28.953126 32.312502 29.083335 32.312502 C 29.213543 32.312502 29.343751 32.270835 29.453126 32.182294 C 29.468751 32.171877 29.484376 32.156252 29.494793 32.140627 L 29.500001 32.140627 L 39.828127 21.781251 Z M 18.395834 21.760418 L 16.713542 22.354168 L 15.59375 21.229168 L 16.1875 19.546876 Z M 18.395834 21.760418 " stroke="url(#15fae4d3a6)" stroke-width="0.25" stroke-miterlimit="4"/></g></svg>